<svg xmlns="http://www.w3.org/2000/svg" viewBox="0 0 600 600"><defs><filter id="shadow" x="-50%" y="-50%" width="200%" height="200%"><feDropShadow dx="7" dy="13" stdDeviation="12" flood-color="#30372c" flood-opacity=".17"/></filter><linearGradient id="brass" x1="0" x2="1"><stop stop-color="#9c772e"/><stop offset=".35" stop-color="#dcc68a"/><stop offset=".7" stop-color="#c4a454"/><stop offset="1" stop-color="#94732d"/></linearGradient><linearGradient id="cover" x1="0" x2="1" y2=".3"><stop stop-color="#355442"/><stop offset="1" stop-color="#4b6954"/></linearGradient><pattern id="grain" width="5" height="5" patternUnits="userSpaceOnUse"><circle cx="1" cy="2" r=".4" fill="#ffffff" opacity=".18"/></pattern></defs><path fill="#ede8dc" d="M0 0H800V800H0z"/><g filter="url(#shadow)"><g transform="rotate(-15 220 225)"><path d="M240 200v91c0 38-51 38-51 0v-109c0-47 66-47 66 0v116" fill="none" stroke="url(#brass)" stroke-width="8" stroke-linecap="round"/></g><g transform="rotate(15 330 205)"><path d="M350 180v91c0 38-51 38-51 0v-109c0-47 66-47 66 0v116" fill="none" stroke="url(#brass)" stroke-width="8" stroke-linecap="round"/></g><g transform="rotate(18 230 340)"><path d="M250 315v91c0 38-51 38-51 0v-109c0-47 66-47 66 0v116" fill="none" stroke="url(#brass)" stroke-width="8" stroke-linecap="round"/></g><g transform="rotate(-12 355 350)"><path d="M375 325v91c0 38-51 38-51 0v-109c0-47 66-47 66 0v116" fill="none" stroke="url(#brass)" stroke-width="8" stroke-linecap="round"/></g></g></svg>